PathFileType	4	(X/Y/Z)	C:/Users/opensim2020/Desktop/walking_exp_matlab/subject02_walking11_straight_01.trc	
DataRate	CameraRate	NumFrames	NumMarkers	Units	OrigDataRate	OrigDataStartFrame	OrigNumFrames	
100.00	100.00	6	42	mm	100.00	900	267	
Frame#	Time	LFHD			RFHD			LBHD			RBHD			C7			T10			CLAV			STRN			RBAK			LSHO			LUPA			LELB			LFRM			LWRA			LWRB			LFIN			RSHO			RUPA			RELB			RFRM			RWRA			RWRB			RFIN			LASI			RASI			LPSI			RPSI			LTHI			LKNE			LTIB			LANK			LHEE			LTOE			RTHI			RKNE			RTIB			RANK			RHEE			RTOE			*39			*40			*41			
		X1	Y1	Z1	X2	Y2	Z2	X3	Y3	Z3	X4	Y4	Z4	X5	Y5	Z5	X6	Y6	Z6	X7	Y7	Z7	X8	Y8	Z8	X9	Y9	Z9	X10	Y10	Z10	X11	Y11	Z11	X12	Y12	Z12	X13	Y13	Z13	X14	Y14	Z14	X15	Y15	Z15	X16	Y16	Z16	X17	Y17	Z17	X18	Y18	Z18	X19	Y19	Z19	X20	Y20	Z20	X21	Y21	Z21	X22	Y22	Z22	X23	Y23	Z23	X24	Y24	Z24	X25	Y25	Z25	X26	Y26	Z26	X27	Y27	Z27	X28	Y28	Z28	X29	Y29	Z29	X30	Y30	Z30	X31	Y31	Z31	X32	Y32	Z32	X33	Y33	Z33	X34	Y34	Z34	X35	Y35	Z35	X36	Y36	Z36	X37	Y37	Z37	X38	Y38	Z38	X39	Y39	Z39	X40	Y40	Z40	X41	Y41	Z41	X42	Y42	Z42	

167	1.660	1430.48108	83.92937	1756.41260	1571.94800	101.85932	1734.54285	1426.60779	-15.27063	1642.96313	1566.96313	-8.93959	1615.45386	1492.06506	-34.30761	1520.22180	1499.76465	-94.95735	1249.53894	1472.30542	102.78938	1450.59753	1486.62427	149.59958	1275.39783	1564.09253	-90.54443	1354.99707	1307.45032	24.01922	1490.52075	1231.95483	-34.38961	1299.05212	1225.22424	-73.08376	1164.07959	1207.31641	-102.22318	1036.49219	1222.38379	-77.54343	898.71643	1199.84058	-126.70107	915.31689	1192.55969	-126.63963	848.44727	1670.43140	62.25784	1491.35303	1767.05762	73.34943	1305.03259	1790.04810	123.75904	1165.72119	1799.97766	192.58194	1065.38513	1768.74573	277.18826	964.13324	1808.26855	240.67792	944.65955	1804.09863	298.85132	902.26086	1367.58850	139.58815	986.92834	1625.53503	128.47156	967.10126	1439.14844	-73.98191	1028.21008	1553.10742	-83.46217	1027.91406	1288.67773	132.19028	685.79675	1312.62915	170.13156	489.09534	1301.26807	184.83546	296.70477	1312.58569	277.20779	88.72437	1364.83899	257.52118	49.41254	1297.61841	433.66891	99.46379	1669.82617	10.93654	666.41095	1625.67029	-24.82763	459.32065	1625.97949	-101.44604	285.78342	1582.69141	-153.67433	99.76955	1525.36963	-194.47606	48.89693	1603.92517	-9.78339	35.63713	1530.66772	-26.04155	1780.71790	-3357.18970	2845.96362	1034.19519			 
168	1.670	1428.50793	91.99175	1755.54724	1569.98047	109.91269	1733.71826	1424.71960	-7.22383	1642.15906	1565.05371	-0.94221	1614.69165	1490.04773	-26.33997	1519.29346	1497.89233	-86.74258	1248.57141	1470.56470	110.89518	1449.78564	1485.24988	157.89110	1274.71094	1561.57458	-82.57394	1353.60120	1305.56580	32.38043	1489.55029	1230.34424	-25.70608	1297.99988	1223.59521	-65.20544	1163.30933	1205.67151	-95.10390	1035.80725	1220.69568	-71.10064	897.88513	1197.88354	-120.01891	914.95184	1190.92017	-120.52290	847.85046	1668.77759	69.72993	1490.77112	1765.26367	81.38590	1304.34924	1788.12939	132.43130	1165.22974	1797.78369	201.83441	1065.21045	1766.92700	287.53613	964.86963	1806.16492	250.92917	944.98425	1802.33435	309.75470	903.36224	1366.69849	148.85867	986.28979	1624.54956	136.75453	966.16467	1437.33167	-65.15857	1027.32446	1551.33813	-74.80212	1026.98267	1287.84888	142.55101	684.90997	1312.11548	179.99063	488.35965	1300.87158	195.79802	296.09897	1312.25476	289.49332	88.51631	1364.37146	269.27097	50.00990	1297.62268	446.12997	100.23956	1668.82092	17.26556	666.13977	1625.23181	-19.70578	459.08994	1625.70349	-98.53228	286.58560	1582.69983	-153.00522	100.98966	1525.28210	-194.61646	51.01478	1604.09668	-9.67142	35.64027	1528.89807	-17.85574	1780.10718	-3360.29517	2845.19849	1034.17957			 
169	1.680	1426.44299	100.04987	1754.73193	1567.93372	117.95105	1732.98474	1422.74524	0.79254	1641.37012	1563.07861	7.04623	1613.98389	1487.93665	-18.36566	1518.45557	1495.82776	-78.23154	1247.44287	1468.78833	119.00108	1449.03528	1483.70874	166.30769	1274.10889	1559.66895	-75.24294	1353.02612	1303.57373	40.76670	1488.55493	1228.21924	-17.80539	1297.10498	1221.80127	-57.14011	1162.50122	1204.28650	-86.77595	1035.29504	1218.93970	-64.36613	897.04828	1195.74500	-112.95983	914.34888	1189.18579	-114.03295	847.18011	1667.01501	77.41332	1490.05212	1763.14490	89.12994	1303.56934	1786.04614	140.88390	1164.68188	1795.93787	211.09613	1065.27466	1764.89380	297.35419	965.29309	1803.92188	260.75766	945.18408	1800.32153	319.92578	904.09174	1365.54529	158.26788	985.60370	1623.31360	145.13263	965.34583	1435.42664	-56.17117	1026.44543	1549.42871	-66.05593	1026.12476	1287.37207	153.26663	684.43225	1311.44080	190.03754	487.65973	1300.39856	206.18329	295.34698	1312.36243	300.35275	88.15959	1365.28015	281.66205	48.40141	1297.38489	456.79874	100.15546	1667.76782	23.73055	665.84900	1624.74695	-14.26741	458.92886	1625.38306	-95.41065	287.41806	1582.82336	-152.18709	102.38708	1525.48828	-193.84952	52.35115	1604.24072	-9.52168	35.61396	1526.77002	-9.79234	1779.54932	-3356.93555	2845.81982	1034.36243			 
170	1.690	1424.31555	108.11156	1753.86938	1565.79578	125.97928	1732.23926	1420.57397	8.87562	1640.52649	1560.95459	15.04248	1613.27283	1485.77222	-10.42302	1517.54443	1493.71301	-69.72449	1246.35205	1466.87268	127.15534	1448.29968	1482.06482	174.73763	1273.50659	1557.41980	-67.11365	1351.99451	1301.53931	49.12703	1487.60144	1226.43872	-8.76828	1296.09827	1219.89111	-48.83493	1161.67603	1201.75415	-79.36817	1034.34399	1217.07117	-57.28881	896.21478	1193.82654	-105.84551	913.74518	1187.20007	-107.17850	846.73889	1665.06738	84.98677	1489.41455	1760.62500	96.65758	1302.60962	1783.56445	148.93269	1163.93164	1793.46460	219.69354	1064.88147	1762.68079	306.73776	965.73102	1801.57214	270.20404	945.18823	1797.98730	329.39160	904.37463	1364.13708	167.77319	984.94299	1621.90540	153.67148	964.49042	1433.38135	-47.08657	1025.51660	1547.38867	-57.19675	1025.25989	1286.40039	164.19499	683.71021	1310.57068	200.24446	487.00317	1300.02881	215.94455	294.53140	1312.73645	309.30460	86.94044	1365.60315	290.67355	47.46864	1297.14441	465.80731	99.03955	1666.63647	30.50819	665.55029	1624.32581	-8.69100	458.79401	1625.05615	-92.07272	288.28519	1583.05151	-151.32593	103.95721	1525.67761	-193.36882	54.26315	1604.44299	-9.38026	35.57233	1524.58850	-1.73740	1778.58398	-3357.08618	2845.84961	1034.25635			 
171	1.700	1422.08105	116.20969	1753.07043	1563.53833	133.94737	1731.50696	1418.35315	16.86143	1639.71924	1558.73901	22.98858	1612.59326	1483.38818	-2.22324	1516.41174	1491.43530	-61.14748	1245.25085	1464.85913	135.33116	1447.61755	1480.33740	183.29225	1272.94824	1555.07263	-59.00563	1350.93311	1299.38110	57.55917	1486.64392	1224.18689	-0.54910	1295.19568	1217.80884	-40.34064	1160.75110	1199.85986	-70.93892	1033.59802	1214.98828	-49.71102	895.32220	1191.51013	-98.04124	913.10834	1185.00391	-99.72554	845.99200	1663.02551	92.46992	1488.82874	1758.47668	104.41628	1301.98596	1781.39746	157.19029	1163.49304	1791.40466	228.35419	1064.73584	1760.51819	315.91891	966.06635	1799.05554	279.29883	945.12024	1795.74927	338.81247	904.70990	1362.55408	177.31129	984.21936	1620.37720	162.35487	963.69379	1431.21741	-37.78398	1024.55737	1545.19543	-48.24846	1024.45947	1285.04395	174.89160	683.24469	1309.59778	210.50877	486.34244	1299.75427	224.93671	293.51389	1313.27197	317.01111	85.74490	1366.21045	298.28577	46.20749	1296.86951	473.34366	96.91695	1665.51648	37.48153	665.22186	1623.89673	-2.91497	458.60159	1624.81238	-88.65898	289.29749	1583.27563	-150.37128	105.64085	1525.76904	-193.15254	56.35919	1604.60266	-9.22827	35.55194	1522.30127	6.26561	1777.90393	-3357.06104	2845.82397	1034.23401			 
172	1.710	1419.69617	124.14005	1752.25891	1561.25488	141.93658	1730.79944	1416.11841	24.77196	1639.01233	1556.45520	30.93930	1611.85876	1480.99316	5.78609	1515.36743	1489.08020	-52.46749	1244.06189	1462.82068	143.56462	1446.95764	1478.47705	191.92601	1272.40308	1552.98193	-50.82740	1350.06348	1297.15698	65.98125	1485.70142	1222.14587	8.35512	1294.08691	1215.62305	-31.75706	1159.82813	1197.60193	-62.61488	1032.83203	1212.75134	-41.76422	894.41223	1188.93237	-89.98352	912.37189	1182.55176	-92.13049	844.95227	1660.83887	99.92642	1488.18079	1755.98389	111.95670	1301.18567	1778.96289	164.98978	1162.76868	1788.97009	236.59132	1064.30554	1758.15796	324.69638	966.01874	1796.45691	287.97119	944.87885	1793.51465	347.80582	905.01624	1360.71814	187.12740	983.55408	1618.69421	171.22833	962.90076	1428.90808	-28.37612	1023.59076	1542.83984	-39.14155	1023.56885	1283.22705	185.56740	682.71686	1308.52185	220.68773	485.49509	1299.51660	233.24681	292.39279	1313.88086	323.39886	83.96520	1366.93970	303.61575	45.43325	1296.79700	479.63437	94.01730	1664.32458	44.70768	664.90271	1623.38013	3.05348	458.54590	1624.46472	-85.09594	290.34442	1583.60400	-149.36440	107.54778	1526.24182	-192.47633	58.73902	1604.81750	-9.07724	35.51460	1519.65515	14.18224	1777.01221	-3360.41504	2845.22070	1034.26709			 
